<?xml version="1.0" standalone="no"?>
<!DOCTYPE svg PUBLIC "-//W3C//DTD SVG 20010904//EN"
 "http://www.w3.org/TR/2001/REC-SVG-20010904/DTD/svg10.dtd">
<svg version="1.0" xmlns="http://www.w3.org/2000/svg"
 width="512.000000pt" height="512.000000pt" viewBox="0 0 512.000000 512.000000"
 preserveAspectRatio="xMidYMid meet">
<metadata>
Created by potrace 1.11, written by Peter Selinger 2001-2013
</metadata>
<g transform="translate(0.000000,512.000000) scale(0.100000,-0.100000)"
fill="#000000" stroke="none">
<path d="M2444 4058 c-135 -17 -196 -28 -284 -53 -30 -9 -59 -17 -65 -18 -16
-4 -77 -27 -120 -47 -22 -10 -58 -26 -80 -36 -22 -10 -80 -42 -129 -71 -272
-165 -482 -413 -605 -718 -31 -78 -65 -195 -77 -271 -8 -49 -12 -69 -14 -69
-4 0 -9 -100 -10 -210 -1 -108 3 -172 16 -245 2 -14 7 -41 10 -60 10 -56 52
-196 80 -263 143 -342 392 -610 721 -775 53 -27 236 -99 273 -108 183 -42 298
-57 450 -56 111 0 133 2 266 23 125 19 288 74 419 142 76 39 209 127 255 168
19 17 46 41 60 53 46 39 156 171 205 246 72 111 165 315 191 420 18 74 24 99
28 125 3 17 8 41 11 54 11 57 19 176 19 306 l1 140 -755 3 -755 2 2 -257 c0
-142 2 -260 2 -263 1 -3 193 -5 429 -5 l427 -1 -3 -24 c-6 -46 -53 -159 -92
-219 -70 -109 -160 -191 -280 -259 -203 -115 -477 -137 -720 -60 -390 125
-638 475 -642 910 -1 72 14 187 33 263 65 254 232 466 459 580 41 21 84 41 95
46 49 18 61 22 75 25 8 2 46 10 84 18 104 22 298 15 411 -13 176 -45 339 -138
474 -270 l79 -78 44 40 c24 21 68 62 99 91 30 28 103 96 162 150 59 54 107
102 107 107 0 14 -109 126 -178 182 -203 165 -475 292 -707 331 -16 3 -43 7
-60 10 -110 18 -317 25 -411 14z"/>
</g>
</svg>
